<svg xmlns="http://www.w3.org/2000/svg" width="1200" height="520" viewBox="0 0 1200 520" role="img" aria-labelledby="title desc">
  <title id="title">Dataflow convergence figure</title>
  <desc id="desc">Real and simulated upstreams converge into common analysis stages.</desc>
  <defs>
    <marker id="arrow" viewBox="0 0 10 10" refX="9" refY="5" markerWidth="8" markerHeight="8" orient="auto-start-reverse">
      <path d="M 0 0 L 10 5 L 0 10 z" fill="#0f172a"/>
    </marker>
    <style>
      .title { font: 700 28px Arial, sans-serif; fill: #111827; }
      .label { font: 600 16px Arial, sans-serif; fill: #111827; }
      .small { font: 14px Arial, sans-serif; fill: #334155; }
      .box { stroke: #0f172a; stroke-width: 2; rx: 10; ry: 10; }
      .a { fill: #e2e8f0; }
      .b { fill: #dcfce7; }
      .c { fill: #fef9c3; }
      .flow { stroke: #0f172a; stroke-width: 3; fill: none; marker-end: url(#arrow); }
    </style>
  </defs>

  <rect width="1200" height="520" fill="#fff"/>
  <text x="40" y="48" class="title">Operational Dataflow: Real + Simulated Inputs</text>

  <rect x="50" y="120" width="250" height="86" class="box a"/>
  <text x="70" y="154" class="label">Real station source</text>
  <text x="70" y="178" class="small">DAQ files + slow-control logs</text>

  <rect x="50" y="300" width="250" height="86" class="box b"/>
  <text x="70" y="334" class="label">Digital twin source</text>
  <text x="70" y="358" class="small">STEP_FINAL station-style .dat</text>

  <rect x="390" y="210" width="280" height="86" class="box c"/>
  <text x="410" y="244" class="label">MASTER STAGE_0</text>
  <text x="410" y="268" class="small">ingestion and queueing</text>

  <rect x="760" y="210" width="180" height="86" class="box c"/>
  <text x="780" y="244" class="label">STAGE_1</text>
  <text x="780" y="268" class="small">clean/alignment</text>

  <rect x="980" y="210" width="160" height="86" class="box c"/>
  <text x="1000" y="244" class="label">STAGE_2/3</text>
  <text x="996" y="268" class="small">correction/enrich -> STATIONS</text>

  <line x1="300" y1="163" x2="390" y2="242" class="flow"/>
  <line x1="300" y1="343" x2="390" y2="254" class="flow"/>
  <line x1="670" y1="253" x2="760" y2="253" class="flow"/>
  <line x1="940" y1="253" x2="980" y2="253" class="flow"/>

  <text x="50" y="452" class="small">Consequence: MASTER mother code processes both streams, with outputs materialized in STATIONS.</text>
</svg>
